<svg aria-hidden="true" style="width:0;height:0;position:absolute;overflow:hidden" xmlns="http://www.w3.org/2000/svg"><defs><symbol id="icon-logo" viewBox="0 0 57 32"><path d="M13.651 7.957c0 .614-.151 1.158-.453 1.633s-.832.873-1.591 1.192l1.681 3.772h-2.276l-1.358-3.422-.866-.013-.478 3.435H6.228l1.254-8.982h2.884c1.069 0 1.884.207 2.444.622s.841 1.002.841 1.763zM8.996 9.655h.918c.552 0 .953-.156 1.203-.467.25-.32.375-.696.375-1.128 0-.346-.112-.596-.336-.752-.216-.164-.552-.246-1.009-.246h-.789l-.362 2.592zm8.01-1.983-.957 6.882h-2.004l.957-6.882h2.004zm-.789-1.296c-.319 0-.578-.095-.776-.285a1.021 1.021 0 0 1-.297-.752c0-.372.125-.678.375-.92.259-.242.578-.363.957-.363.319 0 .578.095.776.285s.297.436.297.739c0 .372-.129.683-.388.933-.25.242-.565.363-.944.363zm4.246 2.19c.647-.743 1.405-1.115 2.276-1.115.56 0 1.009.151 1.345.454s.504.7.504 1.192c0 .536-.155 1.007-.466 1.413s-.78.735-1.41.985l1.28 3.059h-2.198l-1.254-3.318c.724-.233 1.237-.492 1.539-.778.302-.294.453-.631.453-1.011s-.194-.57-.582-.57c-.285 0-.578.117-.879.35-.293.233-.578.588-.854 1.063l-.582 4.264h-2.017l1.345-9.617 2.043-.22-.543 3.849zm7.416 6.208c-.905 0-1.612-.259-2.121-.778-.5-.518-.75-1.236-.75-2.151 0-.709.125-1.395.375-2.061.25-.674.66-1.231 1.229-1.672.578-.441 1.319-.661 2.224-.661.897 0 1.599.259 2.108.778s.763 1.223.763 2.113c0 .709-.125 1.4-.375 2.074s-.664 1.236-1.241 1.685c-.569.449-1.306.674-2.211.674zm.142-1.503c.595 0 1.013-.315 1.254-.946a6.043 6.043 0 0 0 .375-2.074c0-.449-.082-.778-.246-.985-.155-.207-.392-.311-.711-.311-.595 0-1.017.32-1.267.959a5.793 5.793 0 0 0-.362 2.061c0 .449.078.778.233.985s.397.311.724.311zm9.365-5.82c.483 0 .862.147 1.138.441s.414.7.414 1.218c0 .138-.013.294-.039.467l-.685 4.977H36.21l.634-4.549a4.89 4.89 0 0 0 .026-.324c0-.207-.039-.35-.116-.428-.069-.086-.172-.13-.31-.13-.466 0-.97.549-1.513 1.646l-.543 3.784h-2.004l.957-6.882h1.746l-.039 1.205a3.562 3.562 0 0 1 1.06-1.037 2.34 2.34 0 0 1 1.28-.389zm6.303 0c.991 0 1.927.242 2.806.726l-.634 4.407a3.851 3.851 0 0 0-.026.298c0 .138.026.251.078.337.052.078.147.143.285.194l-.582 1.322a2.243 2.243 0 0 1-1.022-.324 1.367 1.367 0 0 1-.569-.817c-.552.786-1.233 1.179-2.043 1.179-.716 0-1.267-.242-1.655-.726-.379-.492-.569-1.162-.569-2.009 0-.726.134-1.439.401-2.139s.694-1.283 1.28-1.75c.595-.467 1.345-.7 2.25-.7zm-.052 1.452c-.414 0-.759.16-1.035.48-.267.32-.461.717-.582 1.192s-.181.959-.181 1.452c0 .458.065.782.194.972a.69.69 0 0 0 .582.272c.457 0 .892-.32 1.306-.959l.478-3.279a2.33 2.33 0 0 0-.763-.13zM17.671 23.041l.759-5.462h1.267l-.759 5.462h-1.267zm3.027 0-1.314-2.916 2.026-2.546h1.353l-2.073 2.53 1.447 2.932h-1.439zm5.596-3.176c0 .531-.248.919-.743 1.166-.49.247-1.131.41-1.924.489.026.494.274.741.743.741.172 0 .341-.032.508-.095.172-.063.355-.16.547-.292l.438.741c-.511.373-1.061.56-1.65.56s-1.038-.158-1.345-.473c-.308-.32-.461-.754-.461-1.3 0-.42.078-.835.235-1.245.162-.41.42-.751.774-1.025s.803-.41 1.345-.41c.485 0 .86.108 1.126.323.271.215.407.489.407.82zm-2.613.898c.485-.032.837-.123 1.056-.276.219-.158.328-.347.328-.567 0-.1-.031-.186-.094-.26s-.164-.11-.305-.11c-.271 0-.488.116-.649.347s-.274.52-.336.867zm6.722-.898c0 .531-.248.919-.743 1.166-.49.247-1.131.41-1.924.489.026.494.274.741.743.741.172 0 .342-.032.508-.095.172-.063.355-.16.547-.292l.438.741c-.511.373-1.061.56-1.65.56s-1.038-.158-1.345-.473c-.308-.32-.461-.754-.461-1.3 0-.42.078-.835.235-1.245.162-.41.42-.751.774-1.025s.803-.41 1.345-.41c.485 0 .86.108 1.126.323.271.215.407.489.407.82zm-2.612.898c.485-.032.837-.123 1.056-.276.219-.158.328-.347.328-.567 0-.1-.031-.186-.094-.26s-.164-.11-.305-.11c-.271 0-.488.116-.649.347s-.274.52-.336.867zm6.932-1.907-1.854 4.185h-1.455l-.735-4.185h1.306l.289 3.239 1.165-3.239h1.283zm1.626 0-.579 4.185h-1.212l.579-4.185h1.212zm-.477-.788a.65.65 0 0 1-.469-.173.622.622 0 0 1-.18-.457.75.75 0 0 1 .227-.56.812.812 0 0 1 .579-.221c.193 0 .349.058.469.173s.18.265.18.449a.757.757 0 0 1-.235.567.787.787 0 0 1-.571.221zm2.365 3.586c-.01.095-.016.158-.016.189 0 .121.023.21.07.268.052.053.128.079.227.079a.71.71 0 0 0 .211-.032c.073-.021.159-.055.258-.102l.321.812c-.167.1-.352.176-.555.229s-.396.079-.579.079c-.381 0-.673-.102-.876-.307s-.305-.499-.305-.883c0-.105.008-.215.023-.331l.274-1.931h-.571l.117-.867h.626l.258-.93 1.048-.118-.149 1.048h.954l-.258.867h-.813l-.266 1.931zm2.534 1.521c-.328 0-.579-.092-.751-.276s-.258-.439-.258-.765c0-.095.008-.192.023-.292l.422-2.987h1.212l-.383 2.79c-.01.105-.016.171-.016.197 0 .126.023.215.07.268a.293.293 0 0 0 .219.079c.245 0 .511-.221.798-.662l.368-2.672h1.212l-.579 4.185H42.06l.023-.623c-.386.504-.824.757-1.314.757zm5.213-4.453c.594 0 1.103.179 1.525.536l-.54.67a1.717 1.717 0 0 0-.485-.236 1.495 1.495 0 0 0-.493-.087.775.775 0 0 0-.415.095.29.29 0 0 0-.141.252.26.26 0 0 0 .063.181.782.782 0 0 0 .227.142c.109.042.282.1.516.173.36.116.628.276.806.481.183.205.274.468.274.788 0 .268-.068.512-.203.733s-.344.397-.626.528c-.282.131-.626.197-1.032.197-.36 0-.691-.063-.993-.189s-.547-.292-.735-.496l.618-.646a1.63 1.63 0 0 0 1.118.441c.209 0 .368-.039.477-.118s.164-.179.164-.3a.32.32 0 0 0-.07-.221.541.541 0 0 0-.227-.158 5.532 5.532 0 0 0-.524-.205c-.365-.126-.633-.284-.806-.473-.167-.189-.25-.436-.25-.741 0-.247.068-.47.203-.67.136-.205.336-.368.602-.489a2.19 2.19 0 0 1 .946-.189z"/><path d="M44.612 28.254c-2.309 1-4.745 1.714-7.219 2.23-1.239.252-2.49.449-3.746.606s-2.521.242-3.787.303a49.365 49.365 0 0 1-7.601-.284 42.881 42.881 0 0 1-7.474-1.526c-2.438-.748-4.827-1.71-7.038-3.029a22.99 22.99 0 0 1-3.148-2.238c-.242-.214-.494-.418-.722-.649s-.474-.444-.688-.691-.442-.477-.64-.737l-.302-.382c-.103-.125-.19-.266-.285-.399C1.213 20.389.608 19.199.277 17.92l-.1-.485a4.436 4.436 0 0 1-.086-.485c-.032-.328-.089-.652-.082-.981a8.143 8.143 0 0 1 .149-1.952 9.722 9.722 0 0 1 1.494-3.544c.356-.527.75-1.027 1.18-1.496.432-.46.89-.894 1.373-1.299-.864.914-1.647 1.901-2.245 2.986S.937 12.919.789 14.122a7.63 7.63 0 0 0-.034 1.806c.009.303.08.595.125.891.026.147.06.292.103.435l.115.434a10.498 10.498 0 0 0 1.682 3.166c.093.121.177.242.278.357l.298.344c.191.234.411.443.622.661s.437.42.659.628.461.397.693.593c.953.766 1.969 1.45 3.037 2.046l.402.223.201.113.205.105c.274.139.544.282.821.417l.836.388c.279.128.567.242.847.363a35.78 35.78 0 0 0 3.484 1.239c.293.098.593.171.89.258s.594.17.895.242l.9.223.907.197c.302.07.605.127.907.182s.605.121.913.169c.611.098 1.222.201 1.837.28 1.227.176 2.464.289 3.701.372.62.034 1.24.07 1.861.084.31.009.621.025.932.028l.933.009c4.973-.022 9.966-.649 14.775-2.118zM12.746 3.176c2.309-1 4.745-1.714 7.217-2.23 1.239-.252 2.49-.449 3.746-.606S26.23.098 27.496.037a49.514 49.514 0 0 1 7.603.288 42.91 42.91 0 0 1 7.475 1.526c2.438.748 4.827 1.71 7.039 3.029a23.082 23.082 0 0 1 3.15 2.236c.242.214.494.418.722.649s.473.443.686.691c.213.248.442.477.64.737l.302.382c.103.125.19.266.285.399.748 1.069 1.353 2.259 1.683 3.536l.1.485c.038.16.066.322.086.485.032.328.089.652.082.981a8.143 8.143 0 0 1-.149 1.952 9.722 9.722 0 0 1-1.494 3.544c-.356.527-.75 1.027-1.18 1.496-.431.461-.89.895-1.373 1.301.864-.913 1.647-1.901 2.245-2.986s1.023-2.254 1.171-3.458a7.63 7.63 0 0 0 .034-1.806c-.009-.303-.08-.595-.125-.891a3.8 3.8 0 0 0-.103-.437l-.115-.434a10.498 10.498 0 0 0-1.682-3.166c-.093-.121-.177-.242-.278-.357l-.295-.343c-.191-.234-.411-.443-.622-.661s-.437-.42-.659-.628c-.221-.208-.461-.397-.693-.593a21.723 21.723 0 0 0-3.037-2.045l-.402-.223-.201-.113-.205-.105c-.274-.139-.544-.282-.821-.417l-.836-.388c-.279-.128-.567-.242-.847-.363a35.768 35.768 0 0 0-3.483-1.24c-.293-.098-.593-.171-.89-.258s-.594-.17-.895-.242l-.9-.223-.907-.197c-.302-.07-.605-.127-.907-.182s-.605-.121-.913-.169c-.611-.098-1.222-.201-1.837-.28a49.299 49.299 0 0 0-3.702-.372c-.62-.034-1.24-.07-1.861-.084-.31-.009-.621-.025-.932-.028l-.934-.01c-4.973.023-9.965.651-14.776 2.119z"/></symbol><symbol id="icon-location" viewBox="0 0 25 32"><path fill="#fff" style="fill:var(--color1,#fff)" d="m12.522 31.064.915-.799c7.695-6.719 11.607-12.586 11.607-17.744 0-7.303-5.7-12.522-12.522-12.522S0 5.217 0 12.521c0 5.157 3.911 11.024 11.607 17.744l.915.799zm0-3.706c-6.53-5.885-9.739-10.872-9.739-14.836 0-5.709 4.402-9.739 9.739-9.739s9.739 4.03 9.739 9.739c0 3.964-3.209 8.951-9.739 14.836zm0-21.793a6.957 6.957 0 1 1 0 13.915 6.957 6.957 0 0 1 0-13.915zm-4.174 6.957a4.174 4.174 0 1 1 8.349 0 4.174 4.174 0 0 1-8.349 0z"/></symbol><symbol id="icon-envelope" viewBox="0 0 41 32"><path fill="#fff" style="fill:var(--color1,#fff)" d="M4.444 0h32A3.556 3.556 0 0 1 40 3.556v24.889a3.556 3.556 0 0 1-3.556 3.556h-32a3.556 3.556 0 0 1-3.556-3.556V3.556A3.556 3.556 0 0 1 4.444 0zm0 11.766v16.679h32V11.767l-16 8-16-8.001zm0-3.976 16 8.001 16-8V3.555h-32V7.79z"/></symbol><symbol id="icon-contacts" viewBox="0 0 32 32"><path fill="#fff" style="fill:var(--color1,#fff)" d="M14.258 9.658c.79-1.064 1.073-2.185.18-3.175-2.004-2.804-3.351-4.538-4.197-5.373-1.607-1.587-4.25-1.373-5.642-.001-.748.737-1.001.99-1.768 1.769-4.275 4.278-1.668 13.32 5.263 20.258 6.93 6.936 15.971 9.545 20.256 5.258a56.88 56.88 0 0 0 1.781-1.783c1.364-1.442 1.571-3.968-.009-5.61-.81-.842-2.463-2.124-5.385-4.214-.895-.8-1.956-.627-2.929.011-.468.307-.808.617-1.451 1.261l-1.168 1.168c-.154.154-2.242-.892-4.269-2.921-2.028-2.03-3.073-4.119-2.92-4.272l1.168-1.169c.204-.204.302-.303.427-.435a8.3 8.3 0 0 0 .664-.775zm7.084 11.726 1.168-1.169c.354-.354.583-.572.77-.722 2.559 1.838 4.042 2.994 4.647 3.623.364.378.307 1.067-.009 1.401a53.045 53.045 0 0 1-1.703 1.703c-2.77 2.771-10.069.666-15.967-5.238-5.9-5.906-8.005-13.206-5.255-15.957C5.757 4.249 6 4.007 6.736 3.281c.276-.272 1.029-.333 1.365-.001.651.643 1.858 2.189 3.634 4.662a6.793 6.793 0 0 1-.346.39c-.103.108-.188.194-.375.381L9.847 9.881c-1.986 1.986-.295 5.365 2.919 8.582 3.211 3.214 6.592 4.908 8.577 2.921z"/></symbol><symbol id="icon-arrow" viewBox="0 0 34 32"><path d="M26.091 8C23.914 4.926 20.63 3.2 16.8 3.2 9.731 3.2 4 8.931 4 16s5.731 12.8 12.8 12.8c7.069 0 12.8-5.731 12.8-12.8h3.2c0 8.836-7.164 16-16 16S.8 24.836.8 16c0-8.837 7.163-16 16-16 4.487 0 8.44 1.892 11.2 5.233V0h3.2v11.2H20V8h6.091z"/></symbol><symbol id="icon-Icon" viewBox="0 0 32 32"><path fill="#d9d9d9" style="fill:var(--color2,#d9d9d9)" d="M2.286 6.857h27.429z"/><path fill="none" stroke="#fff" style="stroke:var(--color1,#fff)" stroke-linejoin="round" stroke-linecap="round" stroke-width="2.286" d="M11.429 2.286h9.143M2.286 6.857h27.429m-3.048 0-1.069 16.029c-.16 2.405-.24 3.607-.76 4.519a4.567 4.567 0 0 1-1.979 1.851c-.944.458-2.149.458-4.56.458h-4.6c-2.41 0-3.615 0-4.56-.458a4.57 4.57 0 0 1-1.978-1.851c-.519-.912-.6-2.114-.76-4.519L5.332 6.857m7.62 6.857v7.619m6.096-7.619v7.619"/></symbol><symbol id="icon-mobile-close" viewBox="0 0 32 32"><path d="M7.626 6.245c-.291.085-.749.427-1.029.774-.432.533-.509 1.054-.24 1.616.088.184 1.011 1.143 3.665 3.806l3.547 3.56-3.551 3.56c-3.907 3.918-3.806 3.799-3.805 4.44 0 .449.157.77.586 1.199.429.43.75.586 1.199.586.634 0 .526.093 4.44-3.808l3.56-3.547 3.56 3.547c3.914 3.901 3.806 3.808 4.44 3.808.449 0 .77-.157 1.199-.586.43-.429.586-.75.586-1.199 0-.634.093-.526-3.808-4.44l-3.547-3.56 3.547-3.56c3.901-3.914 3.808-3.806 3.808-4.44 0-.449-.157-.77-.586-1.199-.429-.43-.75-.586-1.199-.586-.634 0-.526-.093-4.44 3.808l-3.56 3.547-3.56-3.547c-2.721-2.712-3.619-3.576-3.814-3.67-.29-.138-.728-.186-1-.109z"/></symbol><symbol id="icon-mobile-menu-open" viewBox="0 0 32 32"><path d="M3.498 6.936c-.218.065-.503.358-.566.582a2.345 2.345 0 0 0 .003.98l-.003-.016c.066.235.349.515.591.585.25.072 24.699.072 24.959 0 .235-.066.515-.349.585-.591a2.282 2.282 0 0 0-.002-.969l.003.015c-.07-.242-.35-.525-.585-.591-.239-.066-24.762-.064-24.984.003zm0 5.333c-.218.065-.503.359-.566.583a2.345 2.345 0 0 0 .003.98l-.003-.016c.066.235.349.515.591.585.25.072 19.367.071 19.625-.001.235-.065.517-.349.585-.59a2.275 2.275 0 0 0-.002-.969l.003.015c-.069-.241-.35-.525-.585-.59-.238-.066-19.429-.064-19.65.002zm0 5.333c-.218.065-.503.359-.566.582a2.345 2.345 0 0 0 .003.98l-.003-.016c.066.235.349.517.591.585.25.072 24.699.072 24.959 0 .235-.065.515-.349.585-.59a2.29 2.29 0 0 0 0-.954c-.07-.241-.35-.525-.585-.59-.239-.066-24.762-.064-24.984.002zm0 5.334c-.218.065-.503.358-.566.582a2.345 2.345 0 0 0 .003.98l-.003-.016c.066.235.349.515.591.585.25.072 19.367.071 19.625 0 .235-.066.517-.349.585-.591a2.282 2.282 0 0 0-.002-.969l.003.015c-.069-.242-.35-.525-.585-.591-.238-.066-19.429-.063-19.65.003z"/></symbol></defs></svg>